<svg width="48" height="48" viewBox="0 0 48 48" fill="none" xmlns="http://www.w3.org/2000/svg">
<path d="M27.2081 42.8404C25.8138 42.0807 24.9463 40.6199 24.9463 39.0321V26.7772C25.729 27.1073 26.589 27.29 27.4919 27.29C29.3286 27.29 30.988 26.5341 32.1778 25.3167C30.4585 22.953 27.6726 21.415 24.5261 21.415H22.1768H16.507H14.1577C8.93451 21.415 4.7002 25.6493 4.7002 30.8725V46.6085H33.9833V46.5325L27.2081 42.8404Z" fill="#6C8BA8"/>
<path d="M43.2996 25.3857C42.5311 25.3857 41.9081 26.0087 41.9081 26.7773V39.0322C41.9081 40.1111 41.3195 41.1021 40.3719 41.6185L34.123 45.0235L27.8742 41.6185C26.9267 41.1023 26.338 40.1112 26.338 39.0322V28.5987C26.7178 28.6539 27.1028 28.6817 27.4921 28.6817C27.6101 28.6817 27.7277 28.678 27.8449 28.6729C27.8756 28.6715 27.9066 28.6703 27.9371 28.6686C28.0429 28.6628 28.1482 28.6553 28.253 28.6452C28.303 28.6405 28.3527 28.6343 28.4026 28.6286C28.4541 28.6226 28.5055 28.6163 28.5568 28.6094C29.9712 28.4214 31.2938 27.8598 32.4129 26.9723C32.4471 26.9454 32.4811 26.9185 32.5148 26.891C32.5551 26.858 32.5951 26.8249 32.6347 26.791C32.7149 26.723 32.7938 26.6535 32.8713 26.5823C32.8842 26.5705 32.8968 26.5583 32.9095 26.5463C32.9984 26.4636 33.0856 26.3788 33.1707 26.292C33.1716 26.2912 33.1722 26.2905 33.1731 26.2897C33.1731 26.2896 33.1734 26.2893 33.1736 26.2891C33.5245 25.9303 33.8436 25.5371 34.1241 25.1123C34.7962 26.1255 35.6999 26.9862 36.751 27.6006C37.4145 27.9884 38.2669 27.7648 38.6545 27.1013C39.0424 26.4378 38.8188 25.5854 38.1552 25.1978C37.22 24.6512 36.4644 23.8055 36.0279 22.8164C35.8055 22.3121 35.3061 21.9867 34.7549 21.9867H33.4907C32.9395 21.9867 32.4402 22.312 32.2176 22.8164C32.1759 22.9112 32.1295 23.0029 32.0826 23.0942C30.8762 21.9251 29.4156 21.0537 27.8275 20.5436C29.3982 19.0484 30.3801 16.9401 30.3801 14.6054V8.20322C30.3801 7.43466 29.7571 6.81169 28.9885 6.81169C28.22 6.81169 27.597 7.43466 27.597 8.20322V14.6051C27.597 17.5704 25.2031 19.9859 22.2466 20.0234H16.4376C13.4811 19.9858 11.0871 17.5703 11.0871 14.6051V8.20322C11.0871 5.21456 13.5186 2.78306 16.5073 2.78306H22.1771C22.9457 2.78306 23.5686 2.16009 23.5686 1.39153C23.5686 0.622969 22.9457 0 22.1771 0H16.5073C11.9841 0 8.30408 3.67997 8.30408 8.20322V14.6051C8.30408 16.9379 9.28461 19.0449 10.8531 20.54C6.48243 21.9413 3.30908 26.0424 3.30908 30.8724V46.6084C3.30908 47.3769 3.93205 47.9999 4.70061 47.9999H33.9837C34.0098 47.9999 34.0352 47.9974 34.061 47.996C34.0817 47.9969 34.1023 47.9999 34.123 47.9999C34.3521 47.9999 34.5813 47.9434 34.7889 47.8303L41.7037 44.0624C43.5465 43.0583 44.6912 41.1308 44.6912 39.0323V26.7774C44.6913 26.0087 44.0682 25.3857 43.2996 25.3857ZM6.09233 45.2168V30.8725C6.09233 26.4249 9.71071 22.8067 14.1582 22.8067H16.4377C16.461 22.8068 16.4841 22.8084 16.5073 22.8084H17.9506V36.3241C17.9506 37.0927 18.5736 37.7156 19.3421 37.7156C20.1107 37.7156 20.7336 37.0927 20.7336 36.3241V22.8084H22.1769C22.2003 22.8084 22.2232 22.8069 22.2465 22.8067H24.526C26.653 22.8067 28.6903 23.6588 30.1888 25.1333C29.6049 25.4916 28.9508 25.7366 28.2594 25.8407C28.2548 25.8413 28.2504 25.8424 28.2456 25.843C28.1379 25.8589 28.0291 25.87 27.9199 25.879C27.9021 25.8804 27.8848 25.8833 27.8671 25.8845C27.751 25.893 27.6341 25.8968 27.5166 25.8974C27.5083 25.8974 27.5 25.8983 27.4916 25.8983C26.7958 25.8983 26.1214 25.7626 25.487 25.4949C25.0574 25.3136 24.5655 25.3597 24.1767 25.6176C23.7882 25.8754 23.5546 26.3107 23.5546 26.7772V39.0321C23.5546 39.6879 23.6663 40.3269 23.8763 40.9264C24.3382 42.2452 25.2752 43.3719 26.5421 44.0622L28.6608 45.2167H6.09233V45.2168Z" fill="#032B51"/>
<path d="M31.6538 35.3648L33.9839 36.6637L37.9158 33.1848" fill="#6C8BA8"/>
<path d="M33.9832 38.0555C33.7513 38.0555 33.5181 37.9976 33.3061 37.8794L30.976 36.5807C30.3048 36.2065 30.0638 35.359 30.4381 34.6876C30.8122 34.0162 31.6597 33.7753 32.3312 34.1497L33.8001 34.9685L36.9936 32.143C37.5691 31.6335 38.4486 31.6873 38.958 32.263C39.4673 32.8386 39.4134 33.718 38.8379 34.2274L34.9059 37.7063C34.6452 37.9366 34.3157 38.0555 33.9832 38.0555Z" fill="#032B51"/>
</svg>
