<svg width="28" height="28" viewBox="0 0 28 28" fill="none" xmlns="http://www.w3.org/2000/svg">
<path d="M6.30769 11.1744C6.30769 10.31 6.4588 9.49331 6.75658 8.73109C7.04108 7.99076 7.46377 7.31128 8.00213 6.72887C8.53939 6.1541 9.15421 5.65709 9.8288 5.2522C10.5209 4.83348 11.2702 4.51759 12.0532 4.31442C12.8457 4.10634 13.6617 4.0014 14.481 4.0022C15.7466 4.0022 16.9244 4.26998 18.0166 4.80331C19.0945 5.32692 20.0121 6.13047 20.6732 7.12998C21.3555 8.14665 21.6944 9.29665 21.6944 10.5789C21.6944 11.3478 21.6188 12.1 21.4644 12.8355C21.3127 13.5707 21.0717 14.2845 20.7466 14.9611C20.4367 15.616 20.0316 16.2215 19.5444 16.7578C19.0547 17.2855 18.4616 17.7068 17.8021 17.9955C17.0861 18.3093 16.3116 18.4673 15.5299 18.4589C14.9866 18.4589 14.4444 18.3311 13.9088 18.0744C13.3732 17.8189 12.9888 17.4678 12.7577 17.0178C12.6766 17.33 12.5655 17.7811 12.4177 18.3711C12.2755 18.96 12.1799 19.34 12.1377 19.5122C12.0932 19.6833 12.011 19.9689 11.891 20.3644C11.8096 20.657 11.7052 20.9427 11.5788 21.2189L11.1966 21.9678C11.0313 22.2891 10.8465 22.6001 10.6432 22.8989C10.4421 23.19 10.1932 23.5378 9.89658 23.9378L9.73102 23.9967L9.62102 23.8766C9.50213 22.6178 9.44102 21.8644 9.44102 21.6155C9.44102 20.8789 9.5288 20.0522 9.70213 19.1344C9.87213 18.2178 10.141 17.0655 10.5021 15.68C10.8632 14.2955 11.0699 13.4811 11.1255 13.24C10.871 12.7211 10.7421 12.0433 10.7421 11.21C10.7421 10.5444 10.9499 9.92109 11.3666 9.33442C11.7844 8.74998 12.3121 8.45776 12.9521 8.45776C13.4421 8.45776 13.8221 8.61998 14.0944 8.94554C14.3677 9.26998 14.501 9.67887 14.501 10.1778C14.501 10.7066 14.3255 11.4722 13.9721 12.4733C13.6188 13.4755 13.4432 14.2233 13.4432 14.72C13.4432 15.2233 13.6232 15.6444 13.9832 15.9744C14.3385 16.3046 14.8083 16.4835 15.2932 16.4733C15.7332 16.4733 16.141 16.3733 16.5199 16.1722C16.8929 15.977 17.2157 15.6983 17.4632 15.3578C18.0024 14.6181 18.3867 13.7772 18.5932 12.8855C18.6999 12.4166 18.7821 11.9711 18.8332 11.5522C18.8877 11.1311 18.911 10.7333 18.911 10.3555C18.911 8.96998 18.471 7.88998 17.5966 7.11665C16.7177 6.34331 15.5732 5.95887 14.1655 5.95887C12.5644 5.95887 11.2255 6.47665 10.1532 7.51554C9.07991 8.55109 8.53991 9.86776 8.53991 11.4644C8.53991 11.8166 8.59324 12.1566 8.69435 12.4855C8.79324 12.8133 8.90102 13.0744 9.01769 13.2678C9.13324 13.4578 9.24213 13.6433 9.34102 13.8144C9.44102 13.9855 9.49324 14.1078 9.49324 14.1811C9.49324 14.4055 9.43435 14.6978 9.31547 15.0589C9.19213 15.42 9.04658 15.6 8.87102 15.6C8.85435 15.6 8.78547 15.5878 8.66547 15.5622C8.24987 15.4381 7.87455 15.2062 7.57769 14.89C7.26262 14.5623 7.01397 14.1767 6.84547 13.7544C6.67744 13.3337 6.54657 12.8991 6.45435 12.4555C6.35472 12.0358 6.30549 11.6058 6.30769 11.1744Z" fill="white"/>
</svg>
