<svg width="14" height="14" viewBox="0 0 14 14" fill="none" xmlns="http://www.w3.org/2000/svg">
<path d="M11.8646 4.84018C11.3046 2.37618 9.15524 1.26685 7.26724 1.26685C7.26724 1.26685 7.26724 1.26685 7.2619 1.26685C5.37924 1.26685 3.22457 2.37085 2.66457 4.83485C2.04057 7.58684 3.72591 9.91751 5.25124 11.3842C5.81657 11.9282 6.5419 12.2002 7.26724 12.2002C7.99257 12.2002 8.71791 11.9282 9.2779 11.3842C10.8032 9.91751 12.4886 7.59218 11.8646 4.84018ZM7.26724 7.51218C6.33924 7.51218 5.58724 6.76018 5.58724 5.83218C5.58724 4.90418 6.33924 4.15218 7.26724 4.15218C8.19524 4.15218 8.94724 4.90418 8.94724 5.83218C8.94724 6.76018 8.19524 7.51218 7.26724 7.51218Z" fill="#032B51"/>
</svg>
