<svg width="28" height="28" viewBox="0 0 28 28" fill="none" xmlns="http://www.w3.org/2000/svg">
<path d="M26.4373 7.84386C26.3735 7.69219 26.2663 7.56279 26.1291 7.47196C25.992 7.38112 25.831 7.33293 25.6665 7.33344H22.4998C22.1198 6.67044 21.5923 6.10381 20.9581 5.67743C20.3239 5.25105 19.6001 4.97636 18.8427 4.87463C18.0853 4.77291 17.3147 4.84688 16.5905 5.09082C15.8663 5.33476 15.2079 5.74213 14.6665 6.28136C14.1924 6.74362 13.8154 7.29597 13.5579 7.90597C13.3003 8.51596 13.1672 9.17129 13.1665 9.83344V10.4689C8.92687 9.36469 5.45812 5.94803 5.42687 5.90636C5.31791 5.79916 5.18156 5.724 5.03275 5.68909C4.88394 5.65418 4.72839 5.66088 4.58312 5.70844C4.43832 5.75453 4.30865 5.83886 4.20781 5.95254C4.10697 6.06621 4.03869 6.20501 4.01021 6.35428C3.10396 11.3751 4.61437 14.7397 6.04146 16.6772C6.75724 17.6569 7.62598 18.5151 8.61437 19.2189C7.02062 21.0209 4.56229 21.9584 4.54146 21.9689C4.4239 22.0125 4.31769 22.082 4.23076 22.1724C4.14382 22.2627 4.07839 22.3715 4.03934 22.4907C4.00029 22.6098 3.98863 22.7362 4.00523 22.8605C4.02183 22.9848 4.06626 23.1037 4.13521 23.2084C4.21854 23.3334 4.53104 23.7397 5.29146 24.1251C6.23937 24.5939 7.48937 24.8334 8.99979 24.8334C16.3435 24.8334 22.4894 19.1772 23.1144 11.8959L26.2602 8.76053C26.3733 8.64004 26.4499 8.49001 26.4812 8.32779C26.5126 8.16556 26.4973 7.99779 26.4373 7.84386ZM21.7185 10.9376C21.5734 11.0816 21.4878 11.275 21.479 11.4793C21.0519 18.0314 15.5727 23.1668 8.99979 23.1668C7.89562 23.1668 7.12479 23.0209 6.58312 22.8439C7.78104 22.198 9.44771 21.073 10.531 19.4584C10.5939 19.3607 10.6357 19.2509 10.6536 19.1361C10.6716 19.0213 10.6653 18.904 10.6352 18.7918C10.6049 18.6784 10.5512 18.5726 10.4777 18.4811C10.4042 18.3896 10.3123 18.3145 10.2081 18.2605C10.1977 18.2501 8.65604 17.448 7.33312 15.6251C5.83312 13.5626 5.19771 11.0522 5.44771 8.15636C7.09354 9.51053 10.2394 11.7189 13.8644 12.323C13.9841 12.3423 14.1065 12.3355 14.2234 12.3031C14.3402 12.2707 14.4487 12.2136 14.5415 12.1355C14.6321 12.0562 14.705 11.9585 14.7553 11.849C14.8056 11.7395 14.8321 11.6206 14.8331 11.5001V9.83344C14.8347 9.06886 15.099 8.32805 15.5819 7.7352C16.0647 7.14236 16.7367 6.73353 17.4851 6.57725C18.2336 6.42097 19.013 6.52673 19.6927 6.87682C20.3724 7.22691 20.9112 7.80003 21.2185 8.50011C21.285 8.64902 21.3931 8.7755 21.5299 8.86423C21.6667 8.95297 21.8263 9.00016 21.9894 9.00011H23.656L21.7185 10.9376Z" fill="white"/>
</svg>
