<svg width="48" height="48" viewBox="0 0 48 48" fill="none" xmlns="http://www.w3.org/2000/svg">
<path d="M14.6948 45.819C13.7716 45.819 12.4238 45.3668 9.42981 42.0162C7.90815 40.3132 6.66108 38.6379 6.60877 38.5674C6.57352 38.5199 6.54155 38.4703 6.51286 38.4186C5.94352 37.3938 5.64258 36.2323 5.64258 35.0598V26.5387C5.64258 25.7957 6.24483 25.1934 6.9879 25.1934H17.87C19.4285 25.1934 20.8986 25.7953 22.0095 26.8886L27.5814 32.3715C28.3673 33.1574 28.7959 34.1921 28.7959 35.2927C28.7959 36.3933 28.3673 37.4281 27.5891 38.2063C25.9734 39.8217 23.3595 39.8217 21.7528 38.2152L16.1869 32.649C15.6339 32.6449 14.7356 32.6407 14.018 32.6375L13.0037 32.6326C12.2607 32.6287 11.6614 32.0234 11.6654 31.2804C11.6693 30.5398 12.2707 29.9421 13.0105 29.9421C13.013 29.9421 13.0152 29.9421 13.0176 29.9421L14.0303 29.947C14.6669 29.9498 15.348 29.9531 15.8708 29.9563C16.1347 29.958 16.3585 29.9596 16.5169 29.9615C16.9085 29.9659 17.3133 29.9704 17.7037 30.3608L23.6555 36.3126C24.2129 36.8702 25.1202 36.8702 25.6776 36.3126C25.9566 36.0336 26.1054 35.6746 26.1054 35.2926C26.1054 34.9107 25.9567 34.5516 25.6866 34.2816L20.1222 28.8063C19.5178 28.2116 18.7178 27.884 17.8698 27.884H8.33312V35.0598C8.33312 35.7477 8.50262 36.4293 8.824 37.0368C9.06915 37.362 10.0976 38.711 11.3055 40.0765C13.6939 42.7762 14.6065 43.096 14.7277 43.1285L29.273 43.1256C30.2645 43.1256 31.4201 42.6065 32.5187 42.0747C33.4462 41.626 40.3313 36.9557 44.4534 34.1175C44.4759 34.102 44.4989 34.0872 44.5224 34.073C45.291 33.61 45.5398 32.6076 45.0769 31.8387C44.8526 31.4663 44.4967 31.2036 44.0747 31.0988C43.6606 30.996 43.2319 31.0573 42.8642 31.2715L32.8157 37.9354C32.1964 38.346 31.3616 38.1769 30.951 37.5578C30.5404 36.9386 30.7095 36.1038 31.3286 35.6931L41.4052 29.0106C41.4215 28.9998 41.4379 28.9893 41.4547 28.9794C43.4947 27.7509 46.1533 28.411 47.3818 30.4507C48.6024 32.4778 47.9581 35.1163 45.9487 36.3546C44.7023 37.2126 35.0954 43.8169 33.6909 44.4966C32.3113 45.1643 30.8338 45.8162 29.2733 45.8162L14.6957 45.819C14.6953 45.819 14.6949 45.819 14.6948 45.819Z" fill="#032B51"/>
<path d="M9.23442 24.8862H1.3457V42.6601H9.23442V24.8862Z" fill="#6C8BA8"/>
<path d="M9.23347 44.0047H1.34532C0.602346 44.0047 0 43.4024 0 42.6594V24.8861C0 24.1431 0.602252 23.5408 1.34532 23.5408H9.23347C9.97645 23.5408 10.5788 24.143 10.5788 24.8861V42.6594C10.5788 43.4023 9.97645 44.0047 9.23347 44.0047ZM2.69054 41.3141H7.88816V26.2313H2.69054V41.3141Z" fill="#032B51"/>
<path d="M25.5976 22.263C20.0611 22.263 15.5566 17.7588 15.5566 12.2221C15.5566 6.68539 20.061 2.18115 25.5976 2.18115C31.1342 2.18115 35.6385 6.68548 35.6385 12.2221C35.6385 17.7587 31.1341 22.263 25.5976 22.263ZM25.5976 4.87188C21.5447 4.87188 18.2473 8.16918 18.2473 12.2222C18.2473 16.2752 21.5446 19.5725 25.5976 19.5725C29.6506 19.5725 32.9479 16.2752 32.9479 12.2222C32.9479 8.16918 29.6505 4.87188 25.5976 4.87188Z" fill="#032B51"/>
<path d="M32.7115 27.6213C37.5141 27.6213 41.4074 23.728 41.4074 18.9254C41.4074 14.1228 37.5141 10.2295 32.7115 10.2295C27.9089 10.2295 24.0156 14.1228 24.0156 18.9254C24.0156 23.728 27.9089 27.6213 32.7115 27.6213Z" fill="#6C8BA8"/>
<path d="M32.7128 28.9661C27.1763 28.9661 22.6719 24.4618 22.6719 18.9251C22.6719 13.3884 27.1762 8.88428 32.7128 8.88428C38.2494 8.88428 42.7538 13.3885 42.7538 18.9252C42.7538 24.4619 38.2493 28.9661 32.7128 28.9661ZM32.7128 11.5748C28.6599 11.5748 25.3625 14.8721 25.3625 18.9251C25.3625 22.9781 28.6598 26.2754 32.7128 26.2754C36.7658 26.2754 40.0631 22.9781 40.0631 18.9251C40.0631 14.8721 36.7658 11.5748 32.7128 11.5748Z" fill="#032B51"/>
<path d="M32.3793 23.2641C30.9249 23.2156 29.7373 22.4642 29.7373 21.6886C29.7373 21.2766 30.101 20.6707 30.5615 20.6707C31.0705 20.6707 31.4826 21.3857 32.3794 21.5432V19.5799C31.2644 19.1558 29.9555 18.6346 29.9555 17.0833C29.9555 15.5442 31.0946 14.8048 32.3794 14.623V14.2837C32.3794 14.1141 32.5733 13.9565 32.8399 13.9565C33.07 13.9565 33.3004 14.114 33.3004 14.2837V14.5867C34.0517 14.6109 35.4698 14.8049 35.4698 15.641C35.4698 15.9683 35.2515 16.635 34.7183 16.635C34.3183 16.635 34.088 16.2471 33.3003 16.1866V17.956C34.4032 18.3681 35.6877 18.9377 35.6877 20.5738C35.6877 22.0766 34.7182 22.9856 33.3003 23.2158V23.5674C33.3003 23.737 33.0699 23.8945 32.8398 23.8945C32.5732 23.8945 32.3793 23.7371 32.3793 23.5674V23.2641ZM32.5004 17.6648V16.2226C31.9551 16.3317 31.7247 16.6104 31.7247 16.9012C31.7249 17.2528 32.04 17.471 32.5004 17.6648ZM33.1792 19.9069V21.5309C33.5912 21.4339 33.9186 21.2036 33.9186 20.7673C33.9185 20.3676 33.6154 20.113 33.1792 19.9069Z" fill="#032B51"/>
</svg>
