<svg width="48" height="48" viewBox="0 0 48 48" fill="none" xmlns="http://www.w3.org/2000/svg">
<g clip-path="url(#clip0_376_1168)">
<path d="M43.5371 46.412C43.4231 46.412 43.3083 46.3968 43.1954 46.3657L34.9752 44.1002C34.29 43.9115 33.8879 43.2031 34.0766 42.5181C34.2653 41.833 34.9739 41.4309 35.6587 41.6195L41.6947 43.2831L40.0312 37.2471C39.8424 36.562 40.2446 35.8537 40.9298 35.665C41.6145 35.4762 42.3232 35.8784 42.5119 36.5635L44.7773 44.7838C44.9003 45.2301 44.7741 45.708 44.4468 46.0353C44.2024 46.2796 43.8737 46.4119 43.5371 46.412Z" fill="#032B51"/>
<path d="M7.10605 3.47371L1.87961 8.67287C1.09043 9.45783 1.08874 10.7345 1.87586 11.5216L6.20577 15.8515L14.2636 7.79368L9.94732 3.47737C9.16319 2.69324 7.89223 2.69156 7.10605 3.47371Z" fill="#6C8BA8"/>
<path d="M6.20575 17.1382C5.8645 17.1382 5.53722 17.0026 5.296 16.7613L0.966091 12.4314C0.342001 11.8071 -0.00112224 10.9773 2.75761e-06 10.0947C0.00112775 9.21201 0.346501 8.38308 0.972278 7.76068L6.19853 2.56171C6.82084 1.94259 7.64686 1.60181 8.52473 1.60181C9.40579 1.60181 10.234 1.94493 10.8569 2.5678L15.1733 6.88412C15.6757 7.38652 15.6757 8.20121 15.1733 8.7038L7.11559 16.7615C6.87428 17.0025 6.547 17.1382 6.20575 17.1382ZM8.52473 4.17476C8.3317 4.17476 8.15011 4.24976 8.01333 4.38579L2.78689 9.58495C2.64936 9.72182 2.57333 9.90407 2.57305 10.098C2.57277 10.2921 2.64814 10.4745 2.78549 10.6118L6.20565 14.032L12.444 7.79377L9.03745 4.3872C8.90058 4.25032 8.71851 4.17476 8.52473 4.17476Z" fill="#032B51"/>
<path d="M34.2655 43.9108L42.323 35.8533L38.1965 31.7268L30.139 39.7843L34.2655 43.9108Z" fill="#6C8BA8"/>
<path d="M34.2655 45.1979C33.9363 45.1979 33.6069 45.0723 33.3558 44.821L29.2291 40.6943C28.7267 40.1919 28.7267 39.3772 29.2291 38.8747L37.2868 30.817C37.7892 30.3146 38.6039 30.3146 39.1064 30.817L43.2331 34.9436C43.7355 35.4461 43.7355 36.2607 43.2331 36.7633L35.1754 44.821C34.9241 45.0722 34.5948 45.1979 34.2655 45.1979ZM31.9585 39.7846L34.2656 42.0917L40.5038 35.8535L38.1967 33.5464L31.9585 39.7846Z" fill="#032B51"/>
<path d="M4.47856 46.4119C4.14182 46.4119 3.81322 46.2796 3.56873 46.0349C3.24145 45.7077 3.11517 45.2296 3.23816 44.7834L5.50371 36.5632C5.69262 35.878 6.40127 35.4759 7.08602 35.6648C7.77104 35.8535 8.17332 36.5619 7.98442 37.2471L6.32083 43.283L12.3569 41.6194C13.0419 41.4304 13.7503 41.833 13.939 42.518C14.1277 43.2031 13.7255 43.9114 13.0404 44.1001L4.82019 46.3656C4.7075 46.3966 4.59256 46.4119 4.47856 46.4119Z" fill="#032B51"/>
<path d="M41.81 17.1383C41.4688 17.1383 41.1415 17.0027 40.9003 16.7614L32.8426 8.70372C32.3402 8.20131 32.3402 7.38663 32.8426 6.88404L37.1725 2.55413C37.7955 1.93116 38.6238 1.58813 39.5048 1.58813C40.3891 1.58813 41.2196 1.93332 41.8432 2.56032L47.0424 7.78675C48.3217 9.07281 48.319 11.1625 47.0363 12.4453L42.72 16.7616C42.4786 17.0026 42.1512 17.1383 41.81 17.1383ZM35.5719 7.79388L41.81 14.0322L45.2165 10.6258C45.4985 10.3439 45.4992 9.8843 45.2179 9.60165L40.019 4.37512C39.8818 4.23731 39.6993 4.16137 39.5048 4.16137C39.3111 4.16137 39.129 4.23674 38.9921 4.37381L35.5719 7.79388Z" fill="#032B51"/>
<path d="M13.7502 45.198C13.421 45.198 13.0916 45.0725 12.8405 44.8211L4.78263 36.7634C4.54142 36.5222 4.40576 36.1949 4.40576 35.8537C4.40576 35.5125 4.54132 35.1852 4.78263 34.944L10.196 29.5306C10.6984 29.0283 11.513 29.0282 12.0155 29.5306C12.5179 30.033 12.5179 30.8477 12.0155 31.3501L7.51187 35.8535L14.66 43.0014C15.1624 43.5038 15.1624 44.3185 14.66 44.8211C14.4088 45.0723 14.0795 45.198 13.7502 45.198Z" fill="#032B51"/>
<path d="M12.3113 23.2434C11.982 23.2434 11.6528 23.1179 11.4016 22.8665L5.29631 16.7613C5.05509 16.5201 4.91943 16.1927 4.91943 15.8516C4.91943 15.5104 5.055 15.183 5.29631 14.9418L13.354 6.88395C13.5952 6.64274 13.9226 6.50708 14.2637 6.50708C14.605 6.50708 14.9323 6.64264 15.1735 6.88395L21.2787 12.9892C21.7811 13.4916 21.7811 14.3063 21.2787 14.8089C20.7763 15.3115 19.9616 15.3113 19.459 14.8089L14.2635 9.61337L8.02535 15.8517L13.2209 21.0471C13.7233 21.5495 13.7233 22.3641 13.2209 22.8665C12.9699 23.1179 12.6405 23.2434 12.3113 23.2434Z" fill="#032B51"/>
<path d="M30.1387 41.0713C29.8095 41.0713 29.4801 40.9458 29.229 40.6944L26.7369 38.2024C26.2345 37.7 26.2345 36.8853 26.7369 36.3827C27.2393 35.8801 28.054 35.8803 28.5566 36.3827L30.1387 37.965L36.3769 31.7268L34.7946 30.1447C34.2922 29.6423 34.2922 28.8276 34.7946 28.325C35.297 27.8226 36.1117 27.8226 36.6143 28.325L39.1063 30.8171C39.6087 31.3195 39.6087 32.1342 39.1063 32.6368L31.0486 40.6944C30.7974 40.9458 30.4681 41.0713 30.1387 41.0713Z" fill="#032B51"/>
<path d="M33.7523 7.79382L11.1064 30.4397L19.164 38.4972L41.8098 15.8513L33.7523 7.79382Z" fill="#6C8BA8"/>
<path d="M19.1636 39.7845C18.8343 39.7845 18.505 39.6588 18.2538 39.4076L10.1961 31.3499C9.69374 30.8475 9.69374 30.0328 10.1961 29.5303L32.8423 6.88395C33.0837 6.64274 33.4108 6.50708 33.752 6.50708C34.0932 6.50708 34.4205 6.64264 34.6617 6.88395L42.7194 14.9418C43.2218 15.4442 43.2218 16.2589 42.7194 16.7613L20.0733 39.4076C19.8221 39.6588 19.4928 39.7845 19.1636 39.7845ZM12.9253 30.44L19.1635 36.6782L39.9903 15.8514L33.7521 9.61309L12.9253 30.44Z" fill="#032B51"/>
</g>
<defs>
<clipPath id="clip0_376_1168">
<rect width="48" height="48" fill="white"/>
</clipPath>
</defs>
</svg>
