<svg width="48" height="46" viewBox="0 0 48 46" fill="none" xmlns="http://www.w3.org/2000/svg">
<path d="M43.6973 27.8691C42.9549 27.8691 42.3527 27.2672 42.3527 26.5246V21.3483C42.3527 11.2284 34.1198 2.99542 23.9999 2.99542C13.88 2.99542 5.64713 11.2284 5.64713 21.3483V26.5246C5.64713 27.2672 5.04516 27.8691 4.30257 27.8691C3.55998 27.8691 2.95801 27.2672 2.95801 26.5246V21.3483C2.95801 15.7495 5.15269 10.4716 9.1379 6.48629C13.1231 2.50117 18.4012 0.306396 24 0.306396C29.5987 0.306396 34.8766 2.50117 38.8619 6.48638C42.8472 10.4716 45.0418 15.7496 45.0418 21.3484V26.5247C45.0418 27.2672 44.4398 27.8691 43.6973 27.8691Z" fill="#032B51"/>
<path d="M4.30843 21.4143C3.56583 21.4143 2.96387 20.8123 2.96387 20.0697C2.96387 15.9526 5.21677 12.1156 9.30736 9.26578C13.25 6.519 18.468 5.00635 24.0001 5.00635C27.0643 5.00635 30.0174 5.46403 32.7772 6.36685C33.483 6.59766 33.8679 7.35694 33.6371 8.06269C33.4061 8.76843 32.6467 9.15347 31.9413 8.92265C29.4517 8.10825 26.7798 7.69547 24.0001 7.69547C19.0124 7.69547 14.3405 9.03675 10.8446 11.4723C7.49667 13.8048 5.65299 16.858 5.65299 20.0699C5.65289 20.8122 5.05093 21.4143 4.30843 21.4143Z" fill="#032B51"/>
<path d="M12.0745 45.6936H9.98784C7.27978 45.6936 5.07666 43.4904 5.07666 40.7824V28.6851C5.07666 25.977 7.27978 23.7739 9.98784 23.7739H12.0747C14.7828 23.7739 16.9859 25.977 16.9859 28.6851V30.2447C16.9859 30.9873 16.3839 31.5893 15.6413 31.5893C14.8987 31.5893 14.2968 30.9873 14.2968 30.2447V28.6851C14.2968 27.4598 13.2999 26.463 12.0747 26.463H9.98784C8.76253 26.463 7.76578 27.4599 7.76578 28.6851V40.7825C7.76578 42.0078 8.76262 43.0045 9.98784 43.0045H12.0747C13.3 43.0045 14.2968 42.0077 14.2968 40.7825V36.2129C14.2968 35.4703 14.8987 34.8684 15.6413 34.8684C16.3839 34.8684 16.9859 35.4703 16.9859 36.2129V40.7825C16.9858 43.4904 14.7825 45.6936 12.0745 45.6936Z" fill="#032B51"/>
<path d="M38.012 45.6936H35.9253C33.2172 45.6936 31.0142 43.4904 31.0142 40.7824V36.5416C31.0142 35.799 31.6162 35.1971 32.3587 35.1971C33.1012 35.1971 33.7033 35.799 33.7033 36.5416V40.7824C33.7033 42.0077 34.7001 43.0044 35.9253 43.0044H38.012C39.2373 43.0044 40.2341 42.0076 40.2341 40.7824V28.6851C40.2341 27.4598 39.2372 26.463 38.012 26.463H35.9253C34.7 26.463 33.7033 27.4599 33.7033 28.6851V30.3792C33.7033 31.1218 33.1012 31.7237 32.3587 31.7237C31.6162 31.7237 31.0142 31.1218 31.0142 30.3792V28.6851C31.0142 25.977 33.2173 23.7739 35.9253 23.7739H38.012C40.7202 23.7739 42.9232 25.977 42.9232 28.6851V40.7825C42.9232 43.4904 40.7201 45.6936 38.012 45.6936Z" fill="#032B51"/>
<path d="M6.42119 40.7825V28.6851C6.42119 27.7889 6.7525 26.9708 7.29812 26.3442C4.51066 26.6549 1.34473 28.8846 1.34473 31.5908V37.877C1.34473 40.5831 4.51066 42.8126 7.29812 43.1235C6.7524 42.4967 6.42119 41.6784 6.42119 40.7825Z" fill="#6C8BA8"/>
<path d="M7.29833 44.4679C7.24874 44.4679 7.19895 44.465 7.14899 44.4595C3.69655 44.0748 0 41.3376 0 37.8769V31.5908C0 28.1298 3.69655 25.3929 7.14899 25.0081C7.6992 24.9465 8.2317 25.2295 8.48895 25.7203C8.7462 26.2112 8.6758 26.8095 8.31186 27.2275C7.95955 27.6319 7.76558 28.1496 7.76558 28.6852V40.7826C7.76558 41.3182 7.95964 41.8358 8.31186 42.2403C8.6758 42.6581 8.74611 43.2564 8.48895 43.7474C8.25495 44.1935 7.79408 44.4679 7.29833 44.4679ZM5.08152 28.4632C3.74399 29.2044 2.68903 30.3684 2.68903 31.5908V37.877C2.68903 39.0994 3.7439 40.2633 5.08152 41.0046C5.07815 40.9309 5.07646 40.8567 5.07646 40.7826V28.6852C5.07655 28.6109 5.07824 28.5369 5.08152 28.4632Z" fill="#032B51"/>
<path d="M40.7021 26.3442C41.2479 26.9708 41.5791 27.7889 41.5791 28.6851V40.7825C41.5791 41.6786 41.2478 42.4968 40.7021 43.1233C43.4896 42.8126 46.6555 40.583 46.6555 37.8768V31.5906C46.6555 28.8846 43.4896 26.6549 40.7021 26.3442Z" fill="#6C8BA8"/>
<path d="M40.7015 44.4678C40.2057 44.4678 39.7449 44.1935 39.5111 43.7472C39.2538 43.2564 39.3241 42.658 39.688 42.2401C40.0403 41.8358 40.2343 41.318 40.2343 40.7824V28.6851C40.2343 28.1494 40.0404 27.6318 39.688 27.2274C39.3241 26.8095 39.2538 26.2112 39.5111 25.7203C39.7682 25.2294 40.3018 24.9467 40.8509 25.0081C44.3034 25.3929 47.9999 28.1297 47.9999 31.5907V37.8768C47.9999 41.3376 44.3035 44.0745 40.851 44.4595C40.8009 44.4651 40.751 44.4678 40.7015 44.4678ZM42.9182 28.4631C42.9214 28.5369 42.9232 28.611 42.9232 28.6851V40.7825C42.9232 40.8566 42.9214 40.9306 42.9182 41.0045C44.2558 40.2631 45.3107 39.0993 45.3107 37.8768V31.5907C45.3107 30.3683 44.2558 29.2043 42.9182 28.4631Z" fill="#032B51"/>
</svg>
