<svg width="18" height="18" viewBox="0 0 18 18" fill="none" xmlns="http://www.w3.org/2000/svg">
<path d="M13.3512 7.75548C13.0454 7.75548 12.8037 7.5066 12.8037 7.20793C12.8037 6.94482 12.5405 6.39726 12.0997 5.92082C11.6659 5.4586 11.1894 5.18837 10.7912 5.18837C10.4854 5.18837 10.2437 4.93948 10.2437 4.64082C10.2437 4.34215 10.4925 4.09326 10.7912 4.09326C11.5023 4.09326 12.249 4.47726 12.9032 5.16704C13.5148 5.81415 13.9059 6.61771 13.9059 7.20082C13.9059 7.5066 13.657 7.75548 13.3512 7.75548Z" fill="#032B51"/>
<path d="M15.918 7.75543C15.6123 7.75543 15.3705 7.50654 15.3705 7.20787C15.3705 4.68343 13.3154 2.63543 10.798 2.63543C10.4923 2.63543 10.2505 2.38654 10.2505 2.08787C10.2505 1.7892 10.4923 1.5332 10.7909 1.5332C13.9198 1.5332 16.4656 4.07898 16.4656 7.20787C16.4656 7.50654 16.2167 7.75543 15.918 7.75543Z" fill="#032B51"/>
<path d="M10.4214 11.4888L8.99921 12.911C8.72188 13.1883 8.01788 13.5368 7.73343 13.2665C7.65521 13.1883 6.20454 11.9154 6.12632 11.8372C5.39387 11.0976 4.73254 10.3225 4.14232 9.51187C3.55921 8.7012 3.08987 7.89054 2.74854 7.08698C2.41432 6.27631 2.24365 5.5012 2.24365 4.76165C2.24365 4.27809 2.32899 3.81587 2.49965 3.3892C2.67032 2.95543 2.94054 2.5572 3.31743 2.20165C3.77254 1.75365 4.27032 1.5332 4.79654 1.5332C4.99565 1.5332 5.19476 1.57587 5.37254 1.6612C5.55743 1.74654 5.72099 1.87454 5.84899 2.05943L7.49876 4.38476C7.62676 4.56254 7.71921 4.72609 7.78321 4.88254C7.84721 5.03187 7.88276 5.1812 7.88276 5.31631C7.88276 5.48698 7.83299 5.65765 7.73343 5.8212C7.64099 5.98476 7.50588 6.15543 7.33521 6.32609L6.79476 6.88787C6.71654 6.96609 6.68099 7.05854 6.68099 7.17231C6.68099 7.2292 6.6881 7.27898 6.70232 7.33587C6.72365 7.39276 6.74499 7.43543 6.75921 7.47809C6.88721 7.71276 7.10765 8.01854 7.42054 8.38831C7.74054 8.75809 8.08187 9.13498 8.45165 9.51187C8.52276 9.58298 8.60099 9.65409 8.6721 9.7252C8.95654 10.0025 10.7059 11.2043 10.4214 11.4888Z" fill="#032B51"/>
<path d="M16.4439 13.1456C16.4439 13.3447 16.4083 13.551 16.3372 13.7501C16.3159 13.807 16.2946 13.8639 16.2661 13.9207C16.1452 14.1767 15.9888 14.4185 15.7826 14.6461C15.4341 15.0301 15.0501 15.3074 14.6163 15.4852C14.6092 15.4852 14.6021 15.4923 14.595 15.4923C14.1755 15.663 13.7204 15.7554 13.2297 15.7554C12.5044 15.7554 11.7292 15.5847 10.9115 15.2363C10.0937 14.8879 9.27591 14.4185 8.46524 13.8283C8.18791 13.6221 7.91057 13.4159 7.64746 13.1954L9.97279 10.8701C10.1719 11.0194 10.3497 11.1332 10.499 11.2114C10.5346 11.2256 10.5772 11.247 10.627 11.2683C10.6839 11.2896 10.7408 11.2967 10.8048 11.2967C10.9257 11.2967 11.0181 11.2541 11.0963 11.1759L11.6368 10.6425C11.8146 10.4647 11.9852 10.3296 12.1488 10.2443C12.3123 10.1447 12.4759 10.095 12.6537 10.095C12.7888 10.095 12.931 10.1234 13.0875 10.1874C13.2439 10.2514 13.4075 10.3439 13.5852 10.4647L15.939 12.1359C16.1239 12.2639 16.2519 12.4132 16.3301 12.591C16.4012 12.7687 16.4439 12.9465 16.4439 13.1456Z" fill="#032B51"/>
</svg>
