<svg width="36" height="48" viewBox="0 0 36 48" fill="none" xmlns="http://www.w3.org/2000/svg">
<path d="M16.6951 37.7839C16.6808 37.7839 16.6666 37.7838 16.6523 37.7832C15.0113 37.7315 13.5738 36.6473 13.0751 35.0858C13.0736 35.0813 13.0723 35.0769 13.0709 35.0724L10.1966 25.7351C9.55056 23.6973 10.6797 21.5118 12.7163 20.8604C13.7051 20.5447 14.7571 20.6328 15.6788 21.1081C15.8677 21.2055 16.0466 21.3167 16.2142 21.4406V10.5893C16.2142 8.44782 17.9566 6.70557 20.0982 6.70557C22.2397 6.70557 23.982 8.44791 23.982 10.5893V14.0093C23.982 14.7444 23.386 15.3404 22.6508 15.3404C21.9156 15.3404 21.3197 14.7444 21.3197 14.0093V10.5893C21.3197 9.91566 20.7716 9.36778 20.0981 9.36778C19.4246 9.36778 18.8764 9.91585 18.8764 10.5893V27.5642C18.8764 28.2198 18.3991 28.7778 17.7513 28.8792C17.1032 28.9807 16.4784 28.5955 16.278 27.9713L15.0631 24.1903C14.8576 23.5466 14.1686 23.1916 13.5266 23.3964C12.8855 23.6015 12.5302 24.2908 12.7351 24.9329C12.7364 24.9373 12.7379 24.9415 12.7392 24.9459L15.6128 34.281C15.771 34.7682 16.2216 35.1059 16.7363 35.1221C17.4711 35.1453 18.048 35.7599 18.0248 36.4946C18.0021 37.2153 17.4107 37.7839 16.6951 37.7839Z" fill="#032B51"/>
<path d="M17.22 21.1266C17.327 21.1829 17.4365 21.2151 17.5453 21.2305V10.5893C17.5453 9.17945 18.6881 8.03645 20.0981 8.03645C21.0159 8.03645 21.8181 8.52245 22.2681 9.24948C22.3051 8.7632 21.9786 8.27083 21.4232 8.1902L15.4243 7.31842L12.7415 1.88252C12.3786 1.14723 11.3301 1.14723 10.9673 1.88252L8.28455 7.31842L2.28558 8.1902C1.47418 8.30814 1.15018 9.30527 1.73733 9.8777L6.07824 14.1089L5.05355 20.0837C4.91499 20.8918 5.76315 21.5081 6.48905 21.1267L11.8546 18.3057L17.22 21.1266Z" fill="#6C8BA8"/>
<path d="M6.02814 22.5736C5.3433 22.5736 4.69539 22.2711 4.25055 21.7432C3.81105 21.2218 3.62542 20.535 3.74139 19.8588L4.64786 14.5738L0.807956 10.8309C0.170737 10.2098 -0.054169 9.29841 0.2208 8.45222C0.495675 7.60603 1.21352 7.00087 2.09392 6.873L7.40027 6.10191L9.77336 1.29347C10.1672 0.49575 10.9645 0 11.8541 0C12.7438 0 13.5412 0.49575 13.9349 1.29347L16.308 6.102L21.6144 6.87309C22.8175 7.04784 23.6875 8.13609 23.5951 9.35072C23.5514 9.92541 23.143 10.4065 22.5831 10.543C22.0231 10.6797 21.439 10.4403 21.1359 9.95016C20.9102 9.58556 20.5222 9.36778 20.0979 9.36778C19.4242 9.36778 18.8762 9.91584 18.8762 10.5895V21.2306C18.8762 21.6164 18.7089 21.9831 18.4177 22.2359C18.1265 22.4887 17.7399 22.603 17.3578 22.5485C17.0904 22.5104 16.8355 22.4286 16.6003 22.3047L11.8542 19.8096L7.10814 22.3047C6.77364 22.4807 6.40014 22.5736 6.02814 22.5736ZM3.16221 9.408L7.00699 13.1559C7.32077 13.4617 7.46392 13.9023 7.38986 14.3341L6.48227 19.6261L11.2347 17.1275C11.6226 16.9237 12.0859 16.9237 12.4736 17.1275L16.2141 19.094V10.5894C16.2141 9.96019 16.3645 9.36534 16.6313 8.83912L15.2328 8.63587C14.7992 8.57287 14.4244 8.30053 14.2306 7.90772L11.8543 3.09281L9.47805 7.90772C9.28408 8.30053 8.90936 8.57287 8.47586 8.63587L3.16221 9.408Z" fill="#032B51"/>
<path d="M32.2928 37.3435C31.6358 37.3435 31.0642 36.8572 30.9749 36.188C30.8779 35.4594 31.3899 34.7899 32.1186 34.6928C32.7535 34.6082 33.2323 34.0605 33.2323 33.4185V26.2969C33.2323 25.5873 32.655 25.01 31.9454 25.01C31.7168 25.01 31.5004 25.068 31.3026 25.1824C30.8907 25.4207 30.3831 25.4208 29.971 25.183C29.5591 24.9453 29.305 24.5058 29.305 24.03V23.9581C29.305 23.2485 28.7277 22.6712 28.0179 22.6712C27.7887 22.6712 27.5729 22.729 27.3766 22.8428C26.9648 23.0815 26.4568 23.0822 26.0444 22.8445C25.632 22.6069 25.3779 22.167 25.3779 21.691V21.3965C25.3779 20.6869 24.8006 20.1096 24.0908 20.1096C23.8388 20.1096 23.5946 20.1829 23.3845 20.3217C22.771 20.727 21.9453 20.5585 21.5401 19.9453C21.1348 19.3321 21.3033 18.5061 21.9165 18.1009C22.5633 17.6733 23.3153 17.4473 24.0908 17.4473C25.7828 17.4473 27.2298 18.5169 27.7909 20.0154C27.8663 20.011 27.9421 20.0088 28.0178 20.0088C29.6272 20.0088 31.0148 20.9764 31.6295 22.3603C31.7344 22.352 31.8397 22.3477 31.9452 22.3477C34.1228 22.3477 35.8944 24.1193 35.8944 26.2969V33.4185C35.8944 35.3893 34.4222 37.0717 32.47 37.3317C32.4106 37.3397 32.3513 37.3435 32.2928 37.3435Z" fill="#032B51"/>
<path d="M30.754 46.6689H17.7066C16.4534 46.6689 15.4375 45.653 15.4375 44.3998V40.9707H33.0232V44.3998C33.0231 45.653 32.0072 46.6689 30.754 46.6689Z" fill="#6C8BA8"/>
<path d="M30.7542 48.0001H17.7067C15.7215 48.0001 14.1064 46.3851 14.1064 44.3999V40.9708C14.1064 40.2356 14.7024 39.6396 15.4376 39.6396H33.0233C33.7585 39.6396 34.3545 40.2356 34.3545 40.9708V44.3999C34.3544 46.3851 32.7394 48.0001 30.7542 48.0001ZM16.7687 42.302V44.3999C16.7687 44.917 17.1894 45.3378 17.7067 45.3378H30.7543C31.2714 45.3378 31.6922 44.917 31.6922 44.3999V42.302H16.7687Z" fill="#032B51"/>
</svg>
