<svg width="48" height="48" viewBox="0 0 48 48" fill="none" xmlns="http://www.w3.org/2000/svg">
<path d="M29.6097 32.8699H18.3904C17.9032 32.8699 17.4546 32.6051 17.2192 32.1788L11.2835 21.4298C10.74 20.4455 10.4526 19.3309 10.4526 18.2062V4.17909C10.4526 1.87481 12.3273 0 14.6315 0H33.3685C35.6729 0 37.5475 1.87481 37.5475 4.17909V10.6215C37.5475 11.3603 36.9484 11.9593 36.2097 11.9593C35.4709 11.9593 34.8719 11.3603 34.8719 10.6215V4.17909C34.8719 3.35006 34.1974 2.67563 33.3686 2.67563H14.6315C13.8026 2.67563 13.1283 3.35006 13.1283 4.17909V18.2063C13.1283 18.8796 13.3003 19.5471 13.6258 20.1365L19.1799 30.1943H28.8204L34.3745 20.1365C34.7 19.5472 34.8721 18.8796 34.8721 18.2063C34.8721 17.4675 35.4711 16.8684 36.2099 16.8684C36.9486 16.8684 37.5477 17.4675 37.5477 18.2063C37.5477 19.3308 37.2604 20.4455 36.7168 21.4298L30.7811 32.1788C30.5454 32.6052 30.0968 32.8699 29.6097 32.8699Z" fill="#032B51"/>
<path d="M31.6486 33.9151L34.9372 38.4075C35.8229 39.6174 34.8496 41.303 33.3591 41.141L27.8243 40.5391L25.5781 45.6334C24.9732 47.0053 23.0267 47.0053 22.4217 45.6334L20.1754 40.5391L14.6406 41.141C13.1502 41.3032 12.1769 39.6174 13.0625 38.4075L16.3512 33.9151L13.0625 29.4227C12.1769 28.213 13.1502 26.5273 14.6406 26.6893L20.1754 27.2911L22.4217 22.1969C23.0266 20.825 24.9731 20.825 25.5781 22.1969L27.8243 27.2911L33.3591 26.6893C34.8496 26.5271 35.8229 28.2129 34.9372 29.4227L31.6486 33.9151Z" fill="#6C8BA8"/>
<path d="M24.0002 48C22.7686 48 21.695 47.2999 21.198 46.1729L19.347 41.9748L14.7857 42.4708C14.6715 42.4833 14.5561 42.4895 14.4427 42.4895C13.2904 42.4895 12.2478 41.8457 11.722 40.8091C11.1981 39.7761 11.2983 38.5533 11.9834 37.6172L14.6937 33.915L11.9834 30.2128C11.2982 29.2767 11.198 28.0535 11.7221 27.0207C12.2478 25.9843 13.2902 25.3404 14.4425 25.3404C14.5561 25.3404 14.6715 25.3467 14.7856 25.3592L19.347 25.8552L21.198 21.657C21.6949 20.53 22.7685 19.8301 24.0001 19.8301C25.2317 19.8301 26.3054 20.53 26.8023 21.6569L28.6533 25.8553L33.2146 25.3593C33.3289 25.3468 33.4443 25.3405 33.5578 25.3405C34.7101 25.3405 35.7525 25.9844 36.2784 27.0208C36.8023 28.0536 36.7021 29.2766 36.017 30.2127L33.3067 33.915L36.017 37.6172C36.7021 38.5531 36.8022 39.7761 36.2783 40.809C35.7524 41.8455 34.71 42.4895 33.5577 42.4895C33.444 42.4895 33.3287 42.4833 33.2148 42.4708L28.6534 41.9748L26.8024 46.1729C26.3055 47.3 25.2318 48 24.0002 48ZM20.1764 39.2011C20.7017 39.2011 21.1845 39.5104 21.3999 39.9993L23.6461 45.0935C23.7303 45.2842 23.8849 45.3244 24.0001 45.3244C24.1154 45.3244 24.27 45.2842 24.3541 45.0935L26.6004 39.9993C26.8357 39.4657 27.3905 39.1468 27.9691 39.209L33.504 39.8109C33.7385 39.837 33.8565 39.6688 33.8922 39.5986C33.9626 39.4597 33.951 39.3248 33.858 39.1978L30.5692 34.7054C30.2249 34.2348 30.2249 33.5954 30.5692 33.1249L33.858 28.6325C33.951 28.5052 33.9627 28.3702 33.8924 28.2315C33.8566 28.1613 33.7416 27.9944 33.504 28.0193L27.9691 28.6212C27.3896 28.6838 26.8354 28.3646 26.6004 27.831L24.3541 22.7367C24.2701 22.5459 24.1154 22.5059 24.0001 22.5059C23.8849 22.5059 23.7301 22.5459 23.6461 22.7368L21.3999 27.831C21.1646 28.3646 20.6108 28.6838 20.0311 28.6212L14.4963 28.0193C14.2591 27.9945 14.1435 28.1614 14.1081 28.2315C14.0377 28.3703 14.0492 28.5053 14.1423 28.6325L17.4311 33.1249C17.7754 33.5955 17.7754 34.2349 17.4311 34.7054L14.1423 39.1978C14.0492 39.3249 14.0377 39.4599 14.1081 39.5988C14.1438 39.6689 14.2597 39.836 14.4965 39.8109L20.0312 39.209C20.0799 39.2038 20.1284 39.2011 20.1764 39.2011Z" fill="#032B51"/>
<path d="M17.7123 18.5595C16.9736 18.5595 16.3745 17.9604 16.3745 17.2217V8.43685C16.3745 6.88782 17.6349 5.62744 19.1839 5.62744H26.4524C27.1911 5.62744 27.7902 6.2265 27.7902 6.96525C27.7902 7.704 27.1911 8.30307 26.4524 8.30307H19.1839C19.11 8.30307 19.0501 8.36297 19.0501 8.43685V17.2217C19.0501 17.9604 18.4511 18.5595 17.7123 18.5595Z" fill="#032B51"/>
</svg>
