<svg width="48" height="46" viewBox="0 0 48 46" fill="none" xmlns="http://www.w3.org/2000/svg">
<path d="M42.4359 45.801C41.697 45.801 41.0982 45.202 41.0982 44.4633V20.9402L38.0771 23.8242C37.5426 24.3344 36.6959 24.3148 36.1856 23.7804C35.6755 23.2459 35.695 22.3991 36.2294 21.889L41.512 16.8461C41.8993 16.4763 42.4696 16.373 42.962 16.5838C43.4543 16.7944 43.7735 17.2782 43.7735 17.8136V44.4633C43.7736 45.202 43.1747 45.801 42.4359 45.801Z" fill="#032B51"/>
<path d="M31.705 28.0582C31.4707 28.2819 31.1566 28.4034 30.8329 28.3942C30.509 28.3854 30.2021 28.2479 29.9801 28.0121L25.1261 22.8564L23.0654 24.9699V44.4632H32.7509V27.0596L31.705 28.0582Z" fill="#6C8BA8"/>
<path d="M11.3631 28.842L3.52637 36.888V44.4631H13.2119V30.9246L11.3631 28.842Z" fill="#6C8BA8"/>
<path d="M37.1541 43.1256H34.0889V27.0598C34.0889 26.9993 34.0834 26.9401 34.0757 26.8817C34.0738 26.8679 34.0717 26.8541 34.0694 26.8401C34.0602 26.7843 34.0484 26.7296 34.0325 26.6763C34.0318 26.6742 34.0315 26.6719 34.0307 26.6698C34.0135 26.613 33.9916 26.5582 33.9673 26.5049C33.9625 26.4942 33.9573 26.4838 33.952 26.4732C33.9285 26.4252 33.9028 26.3785 33.874 26.334C33.8709 26.3293 33.8683 26.3243 33.8652 26.3196C33.8336 26.2721 33.7986 26.2275 33.7615 26.1845C33.7523 26.1739 33.7427 26.1638 33.7332 26.1534C33.6988 26.1162 33.6628 26.0807 33.6245 26.0477C33.6188 26.0428 33.6134 26.0373 33.6075 26.0324C33.5634 25.9956 33.5164 25.9624 33.4678 25.9314C33.457 25.9246 33.446 25.918 33.435 25.9114C33.3843 25.8811 33.3322 25.8531 33.2774 25.8297C33.2223 25.806 33.1648 25.7871 33.106 25.7711C33.0941 25.7677 33.0821 25.7648 33.07 25.7619C33.0176 25.7491 32.9641 25.7386 32.9094 25.7322C32.9043 25.7316 32.8992 25.7304 32.8941 25.7299C32.847 25.725 32.7994 25.7221 32.7511 25.7221C32.7414 25.7221 32.7319 25.7233 32.722 25.7236C32.707 25.7238 32.692 25.7251 32.677 25.7258C32.629 25.7285 32.5818 25.7334 32.5354 25.7411C32.5245 25.7429 32.5138 25.744 32.503 25.7461C32.4453 25.7569 32.3888 25.7714 32.3339 25.7894C32.3259 25.7921 32.3182 25.7953 32.3102 25.7981C32.2613 25.8152 32.2137 25.8351 32.1676 25.8576C32.1576 25.8624 32.1475 25.867 32.1374 25.8722C32.086 25.8989 32.0365 25.9283 31.9893 25.9612C31.9806 25.9672 31.9723 25.9741 31.9636 25.9803C31.9224 26.0104 31.883 26.043 31.8455 26.0775C31.8398 26.0828 31.833 26.0869 31.8273 26.0925L30.8703 27.0062L26.1004 21.9399C25.8504 21.6744 25.5028 21.5224 25.1381 21.5191C24.7779 21.5176 24.4232 21.6618 24.1687 21.9229L22.108 24.0363C22.0794 24.0658 22.0525 24.0965 22.0268 24.1282C21.9955 24.1551 21.9648 24.1831 21.9356 24.2131L16.852 29.4718C16.3385 30.003 16.3528 30.8498 16.884 31.3634C17.4152 31.8769 18.2623 31.8626 18.7756 31.3314L21.5597 28.4516V43.1261H14.5497V30.9255C14.5497 30.8822 14.5473 30.8392 14.5432 30.7966C14.5414 30.7785 14.5382 30.7608 14.5359 30.7428C14.5325 30.719 14.5296 30.6952 14.525 30.6717C14.5209 30.65 14.5153 30.6287 14.5102 30.6075C14.5055 30.5882 14.501 30.569 14.4955 30.5501C14.4889 30.5278 14.4814 30.5059 14.4738 30.4842C14.4676 30.4666 14.4615 30.4491 14.4547 30.4319C14.4461 30.4105 14.4369 30.3895 14.4272 30.3686C14.4193 30.3511 14.4112 30.3341 14.4025 30.3171C14.3924 30.2974 14.3818 30.2782 14.3709 30.2591C14.3607 30.2415 14.3501 30.2242 14.3393 30.2071C14.328 30.1895 14.3167 30.1722 14.3046 30.1551C14.2921 30.1375 14.2792 30.1203 14.2658 30.1032C14.2536 30.0875 14.2413 30.0721 14.2285 30.0571C14.2229 30.0507 14.2181 30.0438 14.2127 30.0376L12.364 27.9549C12.1174 27.677 11.7661 27.5143 11.3946 27.5056C11.022 27.4951 10.6645 27.6435 10.4053 27.9096L2.56886 35.9553C2.32548 36.2051 2.18945 36.5401 2.18945 36.8888V44.4638C2.18945 45.2026 2.78833 45.8015 3.52717 45.8015H13.2125H22.898C22.9264 45.8015 22.9541 45.799 22.9822 45.7972C23.0101 45.799 23.038 45.8015 23.0664 45.8015H32.7519H37.1548C37.8937 45.8015 38.4925 45.2025 38.4925 44.4638C38.4925 43.7251 37.8929 43.1256 37.1541 43.1256ZM4.86423 37.4321L11.3177 30.8062L11.8741 31.4331V43.1256H4.86423V37.4321ZM24.4034 25.5141L25.1095 24.7901L29.0064 28.9292C29.4695 29.4211 30.1224 29.7135 30.7949 29.7314C31.0049 29.7367 31.2126 29.7175 31.4134 29.6737V43.1253H24.4034V25.5141Z" fill="#032B51"/>
<path d="M38.2109 3.80115L46.6622 1.53662L44.3978 9.988L38.2109 3.80115Z" fill="#6C8BA8"/>
<path d="M47.6081 0.590603C47.27 0.252822 46.7774 0.120541 46.3158 0.244384L37.8646 2.50892C37.4029 2.63267 37.0424 2.99323 36.9186 3.45485C36.7949 3.91638 36.927 4.40904 37.2649 4.74701L39.499 6.98116L30.9157 15.1809L26.1156 10.0826C25.8656 9.8171 25.5181 9.66513 25.1534 9.66176C24.7898 9.6612 24.4384 9.80454 24.1839 10.0656L15.2282 19.2499L12.405 16.0696C12.1583 15.7917 11.807 15.6289 11.4355 15.6203C11.0616 15.6111 10.7055 15.7579 10.4463 16.0243L0.379476 26.3599C-0.136056 26.8892 -0.124899 27.7361 0.404319 28.2516C0.664382 28.5051 1.00113 28.6311 1.33769 28.6311C1.68607 28.6311 2.03398 28.4959 2.29619 28.2269L11.3592 18.9218L14.182 22.1018C14.4287 22.3797 14.7798 22.5424 15.1511 22.5511C15.5222 22.5612 15.8808 22.4137 16.1403 22.1476L25.125 12.9334L29.8918 17.9964C30.1362 18.2559 30.474 18.4072 30.8303 18.4167C31.1834 18.4278 31.5319 18.2931 31.7898 18.0467L41.3915 8.8737L43.4518 10.9339C43.7059 11.188 44.0477 11.3258 44.3977 11.3258C44.5131 11.3258 44.6294 11.311 44.7439 11.2802C45.2056 11.1564 45.5661 10.7959 45.6899 10.3342L47.9544 1.88295C48.0781 1.42123 47.946 0.928666 47.6081 0.590603ZM43.7052 7.40351L40.7953 4.4937L44.7703 3.4286L43.7052 7.40351Z" fill="#032B51"/>
</svg>
