<svg width="48" height="48" viewBox="0 0 48 48" fill="none" xmlns="http://www.w3.org/2000/svg">
<path d="M29.9592 48H4.06168C1.98952 48 0.303711 46.3142 0.303711 44.242V3.75797C0.303523 1.68581 1.98943 0 4.06168 0H35.428C37.5001 0 39.186 1.68581 39.186 3.75797V10.9825H36.3624V3.75797C36.3624 3.24281 35.9431 2.82356 35.428 2.82356H4.06168C3.54643 2.82356 3.12727 3.24272 3.12727 3.75797V44.242C3.12727 44.7573 3.54643 45.1764 4.06168 45.1764H28.7897L36.3625 37.6037V22.2744H39.1861V38.7734L29.9592 48Z" fill="#032B51"/>
<path d="M20.4501 11.2942H8.16211V14.1178H20.4501V11.2942Z" fill="#032B51"/>
<path d="M20.4501 22.5881H8.16211V25.4117H20.4501V22.5881Z" fill="#032B51"/>
<path d="M20.4501 33.8823H8.16211V36.7059H20.4501V33.8823Z" fill="#032B51"/>
<path d="M21.3243 27.9491L18.6561 34.4032C18.2601 35.3609 19.0873 36.1882 20.0451 35.7922L26.4991 33.124C26.8601 32.9747 26.997 32.5189 26.7538 32.2758L22.1725 27.6945C21.9294 27.4511 21.4734 27.5881 21.3243 27.9491Z" fill="#6C8BA8"/>
<path d="M19.5588 37.3053C18.7453 37.3053 17.9943 36.9086 17.5501 36.2443C17.0925 35.5602 17.0184 34.6703 17.3517 33.8639L20.0199 27.4098C20.3288 26.6625 21.0712 26.1602 21.8672 26.1602C22.3624 26.1602 22.8256 26.3506 23.171 26.6962L27.7523 31.2774C28.1876 31.7127 28.3738 32.3413 28.2507 32.9593C28.119 33.6201 27.6658 34.1694 27.0384 34.4288L20.5846 37.0969C20.2503 37.2352 19.905 37.3053 19.5588 37.3053ZM22.1444 29.6621L20.2821 34.1668L24.7868 32.3045L22.1444 29.6621Z" fill="#032B51"/>
<path d="M26.894 32.7709L42.67 16.995L40.0613 14.3863L37.4527 11.7776L21.6768 27.5537C21.6631 27.5675 26.8803 32.7848 26.894 32.7709Z" fill="#6C8BA8"/>
<path d="M27.4739 34.1878L26.8819 34.1827C26.3068 34.1778 26.0134 33.8895 25.6735 33.5559C25.5281 33.413 25.3219 33.209 25.0752 32.9641C24.5853 32.4776 23.9344 31.8286 23.2839 31.178C20.492 28.3862 20.492 28.3862 20.3701 28.0885L20.0146 27.2193L37.4528 9.78101L44.6668 16.9949L27.4739 34.1878ZM23.6651 27.5622C24.5824 28.4848 25.9632 29.8654 26.8858 30.7829L40.6738 16.9949L37.4531 13.7742L23.6651 27.5622Z" fill="#032B51"/>
<path d="M42.6742 16.9912L45.8064 13.859C46.4435 13.222 46.4435 12.189 45.8064 11.552L44.3513 10.0969L42.8962 8.64163C42.2592 8.0046 41.2263 8.0045 40.5892 8.64163L37.457 11.7738C37.4519 11.779 42.6692 16.9963 42.6742 16.9912Z" fill="#6C8BA8"/>
<path d="M43.2242 18.4374L42.5916 18.4004C42.0562 18.3691 41.7895 18.1042 41.4521 17.7689C41.3082 17.6262 41.1036 17.4222 40.8582 17.1773C40.3688 16.6892 39.7171 16.0381 39.0655 15.3865C38.414 14.735 37.7626 14.0829 37.2737 13.5927C36.2467 12.5631 36.2467 12.5631 36.1373 12.2757L35.8125 11.4215L39.5908 7.64323C40.1657 7.06855 40.9297 6.75195 41.7427 6.75195C42.5554 6.75195 43.3194 7.06845 43.8942 7.64323L46.8046 10.5536C47.3793 11.1283 47.6959 11.8925 47.6959 12.7055C47.6959 13.5182 47.3794 14.2824 46.8046 14.8573L43.2242 18.4374ZM39.4501 11.777C40.3718 12.7007 41.7471 14.0759 42.6708 14.9976L44.8079 12.8605C44.8612 12.8075 44.8723 12.7467 44.8723 12.7054C44.8723 12.6638 44.8612 12.6033 44.8079 12.5501L41.8977 9.63973C41.8447 9.58667 41.7839 9.57533 41.7426 9.57533C41.701 9.57533 41.6404 9.58648 41.5871 9.63973L39.4501 11.777Z" fill="#032B51"/>
</svg>
