<svg width="28" height="28" viewBox="0 0 28 28" fill="none" xmlns="http://www.w3.org/2000/svg">
<path d="M19.3382 9.86167C20.0009 9.86167 20.5382 9.32441 20.5382 8.66167C20.5382 7.99893 20.0009 7.46167 19.3382 7.46167C18.6754 7.46167 18.1382 7.99893 18.1382 8.66167C18.1382 9.32441 18.6754 9.86167 19.3382 9.86167Z" fill="white"/>
<path d="M13.9997 8.86499C12.9841 8.86499 11.9913 9.16615 11.1469 9.73039C10.3024 10.2946 9.64428 11.0966 9.25563 12.0349C8.86697 12.9732 8.76528 14.0057 8.96342 15.0018C9.16155 15.9979 9.65061 16.9128 10.3688 17.631C11.0869 18.3491 12.0019 18.8382 12.998 19.0363C13.9941 19.2345 15.0265 19.1328 15.9648 18.7441C16.9031 18.3555 17.7051 17.6973 18.2693 16.8528C18.8336 16.0084 19.1347 15.0156 19.1347 14C19.1347 12.6381 18.5937 11.332 17.6307 10.369C16.6677 9.406 15.3616 8.86499 13.9997 8.86499ZM13.9997 17.3333C13.3405 17.3333 12.696 17.1378 12.1478 16.7716C11.5997 16.4053 11.1724 15.8847 10.9201 15.2756C10.6679 14.6665 10.6018 13.9963 10.7305 13.3497C10.8591 12.7031 11.1766 12.1091 11.6427 11.643C12.1089 11.1768 12.7028 10.8593 13.3494 10.7307C13.9961 10.6021 14.6663 10.6681 15.2754 10.9204C15.8844 11.1727 16.405 11.5999 16.7713 12.1481C17.1376 12.6963 17.3331 13.3407 17.3331 14C17.3331 14.884 16.9819 15.7319 16.3568 16.357C15.7316 16.9821 14.8838 17.3333 13.9997 17.3333Z" fill="white"/>
<path d="M14 5.80167C16.67 5.80167 16.9867 5.81167 18.0408 5.86C18.6749 5.86753 19.3029 5.98394 19.8975 6.20417C20.3289 6.37058 20.7207 6.62545 21.0476 6.9524C21.3745 7.27934 21.6294 7.67111 21.7958 8.1025C22.0161 8.69711 22.1325 9.32513 22.14 9.95917C22.1883 11.0133 22.1983 11.33 22.1983 14.0008C22.1983 16.6717 22.1883 16.9867 22.14 18.0408C22.1325 18.6749 22.0161 19.3029 21.7958 19.8975C21.6294 20.3289 21.3745 20.7207 21.0476 21.0476C20.7207 21.3745 20.3289 21.6294 19.8975 21.7958C19.3029 22.0161 18.6749 22.1325 18.0408 22.14C16.9867 22.1883 16.67 22.1983 14 22.1983C11.33 22.1983 11.0133 22.1883 9.95917 22.14C9.32513 22.1325 8.69711 22.0161 8.1025 21.7958C7.67111 21.6294 7.27934 21.3745 6.9524 21.0476C6.62545 20.7207 6.37058 20.3289 6.20417 19.8975C5.98394 19.3029 5.86753 18.6749 5.86 18.0408C5.81167 16.9867 5.80167 16.67 5.80167 14C5.80167 11.33 5.81167 11.0133 5.86 9.95917C5.86753 9.32513 5.98394 8.69711 6.20417 8.1025C6.37058 7.67111 6.62545 7.27934 6.9524 6.9524C7.27934 6.62545 7.67111 6.37058 8.1025 6.20417C8.69711 5.98394 9.32513 5.86753 9.95917 5.86C11.0133 5.81167 11.33 5.80167 14 5.80167ZM14 4C11.2842 4 10.9433 4.01167 9.87667 4.06C9.04731 4.07675 8.2268 4.23397 7.45 4.525C6.7856 4.78191 6.18222 5.17481 5.67851 5.67851C5.17481 6.18222 4.78191 6.7856 4.525 7.45C4.23388 8.22706 4.07665 9.04786 4.06 9.8775C4.01167 10.9442 4 11.2833 4 14C4 16.7167 4.01167 17.0567 4.06 18.1233C4.07675 18.9527 4.23397 19.7732 4.525 20.55C4.78191 21.2144 5.17481 21.8178 5.67851 22.3215C6.18222 22.8252 6.7856 23.2181 7.45 23.475C8.22706 23.7661 9.04786 23.9233 9.8775 23.94C10.9442 23.9883 11.2842 24 14 24C16.7158 24 17.0567 23.9883 18.1233 23.94C18.953 23.9233 19.7738 23.7661 20.5508 23.475C21.2152 23.2181 21.8186 22.8252 22.3223 22.3215C22.826 21.8178 23.2189 21.2144 23.4758 20.55C23.7667 19.7729 23.9236 18.9521 23.94 18.1225C23.9883 17.0558 24 16.7167 24 14C24 11.2833 23.9883 10.9433 23.94 9.87667C23.9233 9.04731 23.766 8.2268 23.475 7.45C23.2181 6.7856 22.8252 6.18222 22.3215 5.67851C21.8178 5.17481 21.2144 4.78191 20.55 4.525C19.7729 4.23417 18.9521 4.07722 18.1225 4.06083C17.0558 4.01083 16.7167 4 14 4Z" fill="white"/>
</svg>
