<svg width="14" height="14" viewBox="0 0 14 14" fill="none" xmlns="http://www.w3.org/2000/svg">
<path d="M9.93262 2.2002H4.59928C2.99928 2.2002 1.93262 3.0002 1.93262 4.86686V8.60019C1.93262 10.4669 2.99928 11.2669 4.59928 11.2669H9.93262C11.5326 11.2669 12.5993 10.4669 12.5993 8.60019V4.86686C12.5993 3.0002 11.5326 2.2002 9.93262 2.2002ZM10.1833 5.4482L8.51395 6.78153C8.16195 7.0642 7.71395 7.20286 7.26595 7.20286C6.81795 7.20286 6.36462 7.0642 6.01795 6.78153L4.34862 5.4482C4.17795 5.30953 4.15128 5.05353 4.28462 4.88286C4.42328 4.71219 4.67395 4.6802 4.84462 4.81886L6.51395 6.15219C6.91928 6.47753 7.60728 6.47753 8.01262 6.15219L9.68195 4.81886C9.85262 4.6802 10.1086 4.70686 10.242 4.88286C10.3806 5.05353 10.354 5.30953 10.1833 5.4482Z" fill="#032B51"/>
</svg>
